<?xml version="1.0" encoding="UTF-8"?>
<svg version="1.1" xmlns="http://www.w3.org/2000/svg" width="820" height="200">
<path d="M0 0 C2.4375 1.1875 2.4375 1.1875 4 3 C4.80068552 7.41978405 3.10216529 9.86630605 0.69677734 13.36889648 C0.23996582 14.01028564 -0.2168457 14.6516748 -0.6875 15.3125 C-1.60626303 16.6426809 -2.52423921 17.97340565 -3.44140625 19.3046875 C-3.88371582 19.93987305 -4.32602539 20.57505859 -4.78173828 21.22949219 C-6.97309572 24.41420645 -8.98202025 27.70396641 -11 31 C3.02912167 24.61548954 15.74610828 15.86568223 28.5625 7.375 C29.18745361 6.9615332 29.81240723 6.54806641 30.45629883 6.12207031 C32.82777342 4.53508098 34.97679332 3.02320668 37 1 C39.27734375 0.91796875 39.27734375 0.91796875 41.9375 1.1875 C42.81277344 1.26355469 43.68804687 1.33960938 44.58984375 1.41796875 C47.33930207 2.08193843 48.44190759 2.63843136 50 5 C49.54963755 8.54910509 48.96842112 9.02718824 46.078125 11.515625 C44.81122435 12.43974695 43.53447894 13.35047097 42.25 14.25 C41.23063354 14.9778772 41.23063354 14.9778772 40.19067383 15.72045898 C22.88244867 27.94907438 3.99916149 37.70253799 -15 47 C3.5523509 64.09273568 3.5523509 64.09273568 25 74 C25.598125 73.071875 26.19625 72.14375 26.8125 71.1875 C29.00696913 67.98984498 30.58693721 66.70653139 34 65 C33.67 64.34 33.34 63.68 33 63 C32.34608226 58.41323414 32.34367155 54.3055815 34.875 50.3125 C40.99244411 42.88540589 50.90018263 38.88135664 60.265625 37.71875 C63.55771039 37.57243509 65.65505758 37.79303455 68.5 39.5 C68.995 39.995 69.49 40.49 70 41 C69.17802423 44.88570366 68.49137272 47.4524704 65.8125 50.4375 C62.33473975 52.36958903 59.9189238 52.30736657 56 52 C56 51.01 56 50.02 56 49 C54.186508 50.14426266 52.37423275 51.29045392 50.5625 52.4375 C49.55316406 53.07558594 48.54382813 53.71367188 47.50390625 54.37109375 C45.15446165 55.77649542 45.15446165 55.77649542 44 57 C47.63 57 51.26 57 55 57 C55.495 59.97 55.495 59.97 56 63 C52.38967046 65.87489204 48.58739825 67.74501791 44.4375 69.71875 C42.0222813 70.98828804 39.98663008 72.12373826 38 74 C38 75.32 38 76.64 38 78 C41.57347277 79.78673638 45.22082037 78.93475915 49 78 C53.90304332 75.6844698 58.27736712 72.72777224 62.375 69.1875 C65 67 65 67 67.0234375 66.6171875 C69.16126358 66.17346722 69.16126358 66.17346722 70.265625 64.15234375 C70.59046875 63.42144531 70.9153125 62.69054687 71.25 61.9375 C71.58515625 61.20402344 71.9203125 60.47054687 72.265625 59.71484375 C72.62914062 58.86599609 72.62914062 58.86599609 73 58 C71.68 57.01 70.36 56.02 69 55 C69.73587275 48.78836829 73.49189179 45.96713523 78 42 C82.01665965 38.86504613 84.93115771 38.52180733 90 39 C90.66 39.66 91.32 40.32 92 41 C91.66781132 45.39985269 90.35147537 48.76541392 88.34765625 52.66015625 C87.81849609 53.70107422 87.28933594 54.74199219 86.74414062 55.81445312 C86.18919922 56.88630859 85.63425781 57.95816406 85.0625 59.0625 C83.96834364 61.19834441 82.8758342 63.33503349 81.78515625 65.47265625 C81.05631226 66.88430054 81.05631226 66.88430054 80.31274414 68.32446289 C79.07588424 70.84533841 78.00468398 73.37914982 77 76 C88.03204998 68.69665965 97.46608729 58.07399138 103 46 C103.45140759 42.82646782 103.25973217 40.22067896 103 37 C104.26171875 35.28125 104.26171875 35.28125 106 34 C109.38318857 33.63751551 111.86784865 33.41566382 114.9375 35 C116.70911455 38.33480386 116.63425255 41.38537623 116 45 C110.61457821 60.47983558 97.00710899 74.52278078 84 84 C83.38125 84.45761719 82.7625 84.91523438 82.125 85.38671875 C78.11599884 88.0315459 74.66991402 88.44173062 70.015625 88.43359375 C67.44539816 87.88069612 66.57203987 87.0881614 65 85 C64.3125 82.8125 64.3125 82.8125 64 81 C63.53851563 81.32613281 63.07703125 81.65226562 62.6015625 81.98828125 C53.98361313 87.7619667 44.83141187 90.54664247 34.5078125 88.5078125 C32.94823706 88.14407765 31.39378525 87.75705316 29.84765625 87.33984375 C27.91352315 86.79255703 27.91352315 86.79255703 26 88 C13.93590582 88 5.56734677 79.80326072 -3.5078125 72.703125 C-7.32550356 69.72721614 -11.21878926 66.85824911 -15.125 64 C-15.76469727 63.53110352 -16.40439453 63.06220703 -17.06347656 62.57910156 C-22.04521865 58.47300165 -22.04521865 58.47300165 -28 57 C-29.56288288 58.84963627 -29.56288288 58.84963627 -30.9609375 61.3125 C-31.51523437 62.22386719 -32.06953125 63.13523438 -32.640625 64.07421875 C-33.21296875 65.03972656 -33.7853125 66.00523438 -34.375 67 C-35.50777303 68.87502385 -36.64058498 70.75002418 -37.7734375 72.625 C-39.33318874 75.21203884 -40.88493388 77.79934283 -42.38769531 80.41992188 C-42.80889648 81.13728516 -43.23009766 81.85464844 -43.6640625 82.59375 C-44.02193848 83.21958984 -44.37981445 83.84542969 -44.74853516 84.49023438 C-46.74096761 86.8939024 -49.07097931 87.35072446 -52.06640625 87.83203125 C-54.41188891 88.03578025 -56.65071673 88.21357121 -59 88 C-60 87 -60 87 -60.34960938 84.8918457 C-59.85400654 80.7923935 -57.72678855 78.02565689 -55.40625 74.73046875 C-54.94013306 74.04946609 -54.47401611 73.36846344 -53.99377441 72.66682434 C-52.50660716 70.49940781 -51.00365215 68.34350363 -49.5 66.1875 C-48.48721946 64.71752786 -47.475488 63.24683234 -46.46484375 61.77539062 C-43.98864498 58.17509522 -41.49823145 54.58503807 -39 51 C-40.32 50.34 -41.64 49.68 -43 49 C-42.65198447 46.42468508 -42.29035995 44.45167104 -40.875 42.25 C-39 41 -39 41 -35.78515625 40.98828125 C-30.10337944 39.50480392 -28.49181313 35.78538459 -25.5625 30.9375 C-25.02173828 30.08349609 -24.48097656 29.22949219 -23.92382812 28.34960938 C-22.595141 26.24487491 -21.28877532 24.1293224 -20 22 C-20.5878125 22.15726563 -21.175625 22.31453125 -21.78125 22.4765625 C-25.02441868 23.24167624 -27.68001144 23.35571306 -31 23 C-33.5 20.9375 -33.5 20.9375 -35 18 C-35 14.0761242 -34.89542379 11.92527125 -32.125 9.0625 C-30 8 -30 8 -27 8 C-27 8.99 -27 9.98 -27 11 C-18.61140032 6.97273606 -18.61140032 6.97273606 -10.6875 2.125 C-7.04893048 -0.22002402 -4.36353731 -0.67131343 0 0 Z " fill="#000000" transform="translate(305,50)"/>
<path d="M0 0 C2 3 2 3 1.81591797 5.33056641 C0.87375936 8.41302069 -0.4462196 10.91674892 -2.0546875 13.7109375 C-2.66957031 14.79117188 -3.28445313 15.87140625 -3.91796875 16.984375 C-4.56378906 18.10328125 -5.20960938 19.2221875 -5.875 20.375 C-11.43682861 29.94141066 -11.43682861 29.94141066 -16 40 C-10.04462924 39.70949411 -6.92621152 37.21016783 -3 33 C-0.74686924 29.71364635 1.1263466 26.26337197 3 22.75 C4.03693462 20.87180018 5.07726368 18.99547012 6.12109375 17.12109375 C6.61464355 16.23276855 7.10819336 15.34444336 7.61669922 14.42919922 C13.89556108 3.40295928 13.89556108 3.40295928 19 0 C21.04296875 -0.1953125 21.04296875 -0.1953125 23.1875 -0.125 C25.0746875 -0.063125 25.0746875 -0.063125 27 0 C27 1.98 27 3.96 27 6 C27.81404297 5.47599609 27.81404297 5.47599609 28.64453125 4.94140625 C29.35996094 4.48636719 30.07539063 4.03132813 30.8125 3.5625 C31.52019531 3.11003906 32.22789062 2.65757813 32.95703125 2.19140625 C37.13542394 -0.24532371 41.27254404 -0.69781574 46 0 C48.0625 1.625 48.0625 1.625 49 4 C48.74788806 9.85073566 45.94842493 13.63979701 42.75 18.3125 C41.74684383 19.82168589 40.74551988 21.33209138 39.74609375 22.84375 C39.03042236 23.92076172 39.03042236 23.92076172 38.30029297 25.01953125 C33.50839631 31.98081696 33.50839631 31.98081696 32 40 C36.0601595 39.47747513 38.09689313 38.41962755 41.0625 35.625 C48.18085106 29 48.18085106 29 52 29 C53.34661886 35.2434147 53.34661886 35.2434147 51.8671875 38.47265625 C49.69615338 41.41127357 47.4293325 43.16248971 44.4375 45.25 C43.46683594 45.93578125 42.49617188 46.6215625 41.49609375 47.328125 C36.48286901 50.68596567 31.93988924 50.71894913 26 50 C22.8125 48.125 22.8125 48.125 21 45 C19.16662948 35.43313929 23.72237605 28.30907942 28.1484375 20.21484375 C28.68388184 19.23507568 29.21932617 18.25530762 29.77099609 17.24584961 C30.17656738 16.50471924 30.58213867 15.76358887 31 15 C15.91081941 29.48203576 15.91081941 29.48203576 2.875 45.76171875 C0.84381821 48.18644201 0.07538617 48.68941645 -3 49 C-8.07119726 49.6884976 -8.07119726 49.6884976 -13 51 C-18.22596788 51.39441267 -21.59166842 50.90549127 -26 48 C-28.55103364 45.03750932 -29.04842603 43.69048835 -28.7734375 39.76953125 C-27.93955039 35.70538447 -26.59038095 32.61694646 -24.6875 28.9375 C-24.09324219 27.77089844 -23.49898438 26.60429688 -22.88671875 25.40234375 C-21 22 -21 22 -18.71875 18.77734375 C-18.1515625 17.86082031 -17.584375 16.94429687 -17 16 C-17.4021875 14.329375 -17.4021875 14.329375 -17.8125 12.625 C-18 9 -18 9 -16.1484375 6.8125 C-10.62763497 1.90511998 -7.5941857 -0.54244184 0 0 Z " fill="#000000" transform="translate(440,88)"/>
<path d="M0 0 C0.60352743 3.87981918 0.31967746 5.52048381 -1.875 8.8125 C-4.69189449 11.71224433 -5.39910775 11.96780934 -9.5 12.1875 C-13 12 -13 12 -15 10 C-16.48009643 10.97776067 -17.95905144 11.9572494 -19.4375 12.9375 C-20.26121094 13.48277344 -21.08492187 14.02804688 -21.93359375 14.58984375 C-23.89985925 15.83802981 -23.89985925 15.83802981 -25 17 C-23.95199219 16.96519531 -23.95199219 16.96519531 -22.8828125 16.9296875 C-21.97273437 16.91164063 -21.06265625 16.89359375 -20.125 16.875 C-18.76761719 16.84019531 -18.76761719 16.84019531 -17.3828125 16.8046875 C-15 17 -15 17 -13 19 C-12.9140625 21.3671875 -12.9140625 21.3671875 -14 24 C-16.47532412 25.61280068 -18.72704716 26.87977311 -21.375 28.125 C-22.73942926 28.78926161 -24.1015042 29.45838548 -25.4609375 30.1328125 C-26.06728027 30.42043457 -26.67362305 30.70805664 -27.29833984 31.00439453 C-29.18648935 32.10911098 -30.52011335 33.39919096 -32 35 C-31.67 35.99 -31.34 36.98 -31 38 C-27.40297228 39.79851386 -23.73857456 38.99953028 -20 38 C-15.05685407 35.43064311 -10.58486091 32.32648475 -6.31640625 28.75390625 C-4 27 -4 27 -1.6875 27.25 C-1.130625 27.4975 -0.57375 27.745 0 28 C0.29136859 31.71494951 0.4091948 34.23740969 -1.375 37.5625 C-8.68856449 44.35366703 -18.10652219 48.98229456 -28.1875 49.3125 C-33.58948344 48.86971447 -37.46231677 48.07964992 -41.9375 44.9375 C-44.38811712 41.44722713 -44.72980804 39.40897108 -44.4921875 35.22265625 C-43.63847286 31.36738936 -41.91133082 29.64666438 -39 27 C-36.6875 26.125 -36.6875 26.125 -35 26 C-35.350625 25.34 -35.70125 24.68 -36.0625 24 C-37.50629769 19.37984738 -37.23834048 15.46087235 -35.08203125 11.17578125 C-30.27518944 4.59410553 -21.06314361 0.29350384 -13.32421875 -1.68359375 C-8.40836371 -2.35281099 -4.27906622 -2.85271082 0 0 Z " fill="#000000" transform="translate(555,90)"/>
<path d="M0 0 C0.66 0.33 1.32 0.66 2 1 C2.32470459 5.13998349 2.4304413 7.33999001 0.125 10.875 C-2.74141124 13.74141124 -3.42962159 13.97998672 -7.5625 14.125 C-11 14 -11 14 -12 13 C-12.6984127 6.01587302 -12.6984127 6.01587302 -9.9375 2 C-6.32082639 -0.46241608 -4.29322859 -0.48602588 0 0 Z " fill="#000000" transform="translate(569,126)"/>
<path d="M0 0 C0.66 0.33 1.32 0.66 2 1 C2.32470459 5.13998349 2.4304413 7.33999001 0.125 10.875 C-2.74141124 13.74141124 -3.42962159 13.97998672 -7.5625 14.125 C-11 14 -11 14 -12 13 C-12.6984127 6.01587302 -12.6984127 6.01587302 -9.9375 2 C-6.32082639 -0.46241608 -4.29322859 -0.48602588 0 0 Z " fill="#000000" transform="translate(503,126)"/>
<path d="M0 0 C1 1 1 1 1.375 3.6875 C0.8567432 8.26543505 -0.80823201 9.73223754 -4 13 C-6.73247348 14.36623674 -8.98198902 14.128426 -12 14 C-13 13 -13 13 -13.3125 9.75 C-12.95354121 5.44249452 -12.00888412 4.00888412 -9 1 C-6.01787087 -0.49106457 -3.28390342 -0.11941467 0 0 Z " fill="#000000" transform="translate(453,68)"/>
</svg>
